<?xml version="1.0" encoding="utf-8"?>
<!-- Generator: Adobe Illustrator 24.1.2, SVG Export Plug-In . SVG Version: 6.00 Build 0)  -->
<svg version="1.1" id="Layer_1" xmlns="http://www.w3.org/2000/svg" xmlns:xlink="http://www.w3.org/1999/xlink" x="0px" y="0px"
	 viewBox="0 0 19 19" style="enable-background:new 0 0 19 19;" xml:space="preserve">
<style type="text/css">
	.st0{fill:#B3B2B2;}
</style>
<g>
	<g>
		<path class="st0" d="M9.5,0.0001C4.2538,0.0001,0,4.2534,0,9.5c0,5.2466,4.2538,9.4999,9.5,9.4999c5.2467,0,9.5-4.2533,9.5-9.4999
			C19,4.2534,14.7467,0.0001,9.5,0.0001z M10.3605,14.1302c0,0.2603-0.085,0.4775-0.2549,0.6528
			c-0.1704,0.1749-0.3853,0.2621-0.6451,0.2621c-0.2603,0-0.4752-0.0872-0.6451-0.2621C8.645,14.6077,8.56,14.3905,8.56,14.1302
			V7.9355c0-0.2603,0.085-0.4779,0.2554-0.6528c0.1699-0.1749,0.3848-0.2625,0.6451-0.2625c0.2598,0,0.4747,0.0876,0.6451,0.2625
			c0.1699,0.1749,0.2549,0.3925,0.2549,0.6528V14.1302z M10.4054,5.2953c0,0.29-0.0726,0.4876-0.2173,0.5923
			c-0.1453,0.1051-0.3927,0.1578-0.7424,0.1578c-0.3404,0-0.5804-0.0549-0.7202-0.1652C8.5852,5.7703,8.5156,5.5753,8.5156,5.2953
			V5.0105c0-0.2803,0.0751-0.4753,0.2247-0.5856C8.89,4.3154,9.1305,4.26,9.4605,4.26c0.3497,0,0.5947,0.0554,0.735,0.1649
			c0.1398,0.1103,0.2099,0.3053,0.2099,0.5856V5.2953z"/>
	</g>
</g>
</svg>
