<?xml version="1.0" encoding="utf-8"?>
<!-- Generator: Adobe Illustrator 24.1.2, SVG Export Plug-In . SVG Version: 6.00 Build 0)  -->
<svg version="1.1" id="Layer_1" xmlns="http://www.w3.org/2000/svg" xmlns:xlink="http://www.w3.org/1999/xlink" x="0px" y="0px"
	 viewBox="0 0 39 32" style="enable-background:new 0 0 39 32;" xml:space="preserve">
<style type="text/css">
	.st0{fill:#FFFFFF;}
	.st1{fill:#CDCDCC;}
	.st2{fill:url(#SVGID_1_);}
	.st3{fill:url(#SVGID_2_);}
	.st4{fill-rule:evenodd;clip-rule:evenodd;fill:#33AADD;}
	.st5{fill-rule:evenodd;clip-rule:evenodd;}
	.st6{fill-rule:evenodd;clip-rule:evenodd;fill:#D9B197;}
</style>
<g>
	<circle class="st0" cx="22.999" cy="15.999" r="15.499"/>
	<path class="st1" d="M22.9988,1c8.2704,0,14.9988,6.7284,14.9988,14.9988s-6.7284,14.9988-14.9988,14.9988
		S7.9999,24.2692,7.9999,15.9988S14.7284,1,22.9988,1 M22.9988,0C14.1629,0,6.9999,7.1629,6.9999,15.9988
		s7.1629,15.9988,15.9988,15.9988s15.9988-7.1629,15.9988-15.9988S31.8347,0,22.9988,0L22.9988,0z"/>
</g>
<linearGradient id="SVGID_1_" gradientUnits="userSpaceOnUse" x1="26.3401" y1="-215.4785" x2="35.6388" y2="-206.1033" gradientTransform="matrix(1 0 0 1 0 226)">
	<stop  offset="0.21" style="stop-color:#E95C2A"/>
	<stop  offset="0.6841" style="stop-color:#F7AF3E"/>
</linearGradient>
<path class="st2" d="M29.8748,9.4483c-1.5085,0-3.1604,0.8222-4.9027,2.4438c-0.8222,0.7618-1.5462,1.5915-2.0742,2.2477
	c0,0,0.8448,0.973,1.7725,2.0214c0.5054-0.6336,1.2219-1.4934,2.0592-2.2703c1.5462-1.4482,2.557-1.7424,3.1377-1.7424
	c2.1723,0,3.9373,1.8253,3.9373,4.0806c0,2.2326-1.765,4.058-3.9373,4.0806c-0.1056,0-0.2263-0.0151-0.3771-0.0453
	c0.6336,0.2942,1.32,0.5054,1.9611,0.5054c3.9825,0,4.767-2.7531,4.8122-2.9492c0.1131-0.5054,0.181-1.0333,0.181-1.5764
	C36.4369,12.4955,33.4953,9.4483,29.8748,9.4483z"/>
<linearGradient id="SVGID_2_" gradientUnits="userSpaceOnUse" x1="19.4918" y1="-204.0617" x2="10.1931" y2="-213.4369" gradientTransform="matrix(1 0 0 1 0 226)">
	<stop  offset="0.21" style="stop-color:#E5297A"/>
	<stop  offset="0.8929" style="stop-color:#532983"/>
</linearGradient>
<path class="st3" d="M15.9586,23.01c1.5085,0,3.1604-0.8222,4.9027-2.4438c0.8222-0.7618,1.5462-1.5915,2.0742-2.2477
	c0,0-0.8448-0.973-1.7725-2.0214c-0.5054,0.6336-1.2219,1.4934-2.0591,2.2703c-1.5462,1.4331-2.5645,1.7424-3.1377,1.7424
	c-2.1723,0-3.9373-1.8253-3.9373-4.0806c0-2.2326,1.765-4.058,3.9373-4.0806c0.1056,0,0.2263,0.0151,0.3771,0.0453
	c-0.6336-0.2942-1.32-0.5054-1.9611-0.5054c-3.9825-0.0075-4.767,2.7455-4.8122,2.9492c-0.1131,0.5054-0.181,1.0333-0.181,1.5764
	C9.3889,19.9628,12.3305,23.01,15.9586,23.01z"/>
<path class="st4" d="M18.9907,13.9513c-0.4375-0.4224-2.5645-2.1497-4.601-2.21c-3.6356-0.0905-4.6991,2.5494-4.7971,2.8888
	c0.7015-2.9567,3.2961-5.1667,6.3736-5.1818c2.5117,0,5.0536,2.4665,6.9317,4.6915l0.0075-0.0075c0,0,0.8448,0.973,1.7725,2.0214
	c0,0,1.056,1.2445,2.1723,2.3382c0.4375,0.4224,2.557,2.127,4.5935,2.1874c3.7336,0.1056,4.767-2.6852,4.8198-2.8964
	c-0.6864,2.9794-3.2886,5.1969-6.3811,5.212c-2.5117,0-5.0536-2.4665-6.9393-4.6915c0,0.0075-0.0075,0.0075-0.0075,0.0151
	c0,0-0.8448-0.973-1.7725-2.0214C21.1705,16.2971,20.1146,15.045,18.9907,13.9513z M9.5925,14.6603c0-0.0075,0-0.0151,0.0075-0.0226
	C9.5925,14.6452,9.5925,14.6527,9.5925,14.6603z"/>
<g>
	<path class="st5" d="M8,16c4.4183,0,8,3.5817,8,8s-3.5817,8-8,8s-8-3.5817-8-8S3.5817,16,8,16z"/>
</g>
<path class="st6" d="M13.2977,25.1626c-0.224,0.8359-0.7392,0.947-1.4082,0.8389l-0.6897,2.5741
	c-0.1222,0.4562-0.5912,0.7269-1.0471,0.6047c-0.4562-0.1222-0.727-0.5911-0.6048-1.0473l0.6887-2.5702
	c-0.6514-0.2411-1.0567-0.5935-0.8291-1.4426c0.3118-1.1638,1.4355-1.8739,2.5098-1.586
	C12.9915,22.822,13.6095,23.9987,13.2977,25.1626z M8.864,22.4233v5.9214c0,0.4723-0.3829,0.8552-0.8549,0.8552
	c-0.4723,0-0.8552-0.3829-0.8552-0.8552v-5.92c-1.0035-0.053-1.7282-0.3036-1.7282-1.5194c0-1.5363,1.1495-2.7817,2.5677-2.7817
	c1.418,0,2.5675,1.2454,2.5675,2.7817C10.5609,22.1087,9.8514,22.3668,8.864,22.4233z M6.5925,24.1202
	c0.2275,0.8491-0.1778,1.2015-0.8292,1.4426L6.452,28.133c0.1222,0.4562-0.1485,0.9251-0.6047,1.0473
	c-0.456,0.1222-0.9249-0.1485-1.0472-0.6047l-0.6897-2.5741c-0.669,0.1081-1.1842-0.003-1.4081-0.8389
	c-0.3119-1.1639,0.3062-2.3406,1.3803-2.6284C5.157,22.2463,6.2806,22.9564,6.5925,24.1202z"/>
<g>
	<path class="st0" d="M8,14c-3.2715,0-6.172,1.5861-7.9976,4.0222v5.9295C0.0287,19.5558,3.598,16,8,16c4.4183,0,8,3.5817,8,8
		c0,4.4023-3.5565,7.972-7.9529,7.9976h5.9306C16.4138,30.1721,18,27.2715,18,24C18,18.486,13.514,14,8,14z"/>
	<path class="st0" d="M0.0024,24.0483v5.9295c0.5742,0.7662,1.2537,1.4456,2.0198,2.0198h5.9306
		C3.5728,31.9722,0.0286,28.4283,0.0024,24.0483z"/>
</g>
</svg>
