<?xml version="1.0" encoding="utf-8"?>
<!-- Generator: Adobe Illustrator 24.1.2, SVG Export Plug-In . SVG Version: 6.00 Build 0)  -->
<svg version="1.1" id="Layer_1" xmlns="http://www.w3.org/2000/svg" xmlns:xlink="http://www.w3.org/1999/xlink" x="0px" y="0px"
	 viewBox="0 0 32.0001 32" style="enable-background:new 0 0 32.0001 32;" xml:space="preserve">
<style type="text/css">
	.st0{fill:#FFFFFF;}
	.st1{fill:#CDCDCC;}
	.st2{fill:url(#SVGID_1_);}
	.st3{fill:url(#SVGID_2_);}
	.st4{fill-rule:evenodd;clip-rule:evenodd;fill:#33AADD;}
</style>
<g>
	<circle class="st0" cx="15.9991" cy="15.999" r="15.499"/>
	<path class="st1" d="M15.9988,1c8.2704,0,14.9988,6.7284,14.9988,14.9988s-6.7284,14.9988-14.9988,14.9988S1,24.2692,1,15.9988
		S7.7284,1,15.9988,1 M15.9988,0C7.1629,0,0,7.1629,0,15.9988s7.1629,15.9988,15.9988,15.9988s15.9988-7.1629,15.9988-15.9988
		S24.8347,0,15.9988,0L15.9988,0z"/>
</g>
<linearGradient id="SVGID_1_" gradientUnits="userSpaceOnUse" x1="19.3402" y1="-215.4785" x2="28.6389" y2="-206.1033" gradientTransform="matrix(1 0 0 1 0 226)">
	<stop  offset="0.21" style="stop-color:#E95C2A"/>
	<stop  offset="0.6841" style="stop-color:#F7AF3E"/>
</linearGradient>
<path class="st2" d="M22.8748,9.4483c-1.5085,0-3.1604,0.8222-4.9027,2.4438c-0.8221,0.7618-1.5462,1.5915-2.0742,2.2477
	c0,0,0.8448,0.973,1.7725,2.0214c0.5054-0.6336,1.2219-1.4934,2.0591-2.2703c1.5462-1.4482,2.557-1.7424,3.1378-1.7424
	c2.1723,0,3.9373,1.8253,3.9373,4.0806c0,2.2326-1.765,4.058-3.9373,4.0806c-0.1056,0-0.2263-0.0151-0.3771-0.0453
	c0.6336,0.2942,1.32,0.5054,1.9611,0.5054c3.9825,0,4.767-2.7531,4.8122-2.9492c0.1131-0.5054,0.181-1.0333,0.181-1.5764
	C29.437,12.4955,26.4953,9.4483,22.8748,9.4483z"/>
<linearGradient id="SVGID_2_" gradientUnits="userSpaceOnUse" x1="12.4918" y1="-204.0617" x2="3.1932" y2="-213.4369" gradientTransform="matrix(1 0 0 1 0 226)">
	<stop  offset="0.21" style="stop-color:#E5297A"/>
	<stop  offset="0.8929" style="stop-color:#532983"/>
</linearGradient>
<path class="st3" d="M8.9586,23.01c1.5085,0,3.1604-0.8222,4.9027-2.4438c0.8222-0.7618,1.5462-1.5915,2.0742-2.2477
	c0,0-0.8448-0.973-1.7725-2.0214c-0.5054,0.6336-1.2219,1.4934-2.0591,2.2703c-1.5462,1.4331-2.5645,1.7424-3.1378,1.7424
	c-2.1723,0-3.9373-1.8253-3.9373-4.0806c0-2.2326,1.765-4.058,3.9373-4.0806c0.1056,0,0.2263,0.0151,0.3771,0.0453
	c-0.6336-0.2942-1.32-0.5054-1.9611-0.5054c-3.9825-0.0075-4.767,2.7455-4.8122,2.9492c-0.1131,0.5054-0.181,1.0333-0.181,1.5764
	C2.389,19.9628,5.3306,23.01,8.9586,23.01z"/>
<path class="st4" d="M11.9908,13.9513c-0.4375-0.4224-2.5645-2.1497-4.601-2.21c-3.6356-0.0905-4.6991,2.5494-4.7971,2.8888
	c0.7015-2.9567,3.2961-5.1667,6.3736-5.1818c2.5117,0,5.0536,2.4665,6.9317,4.6915l0.0075-0.0075c0,0,0.8448,0.973,1.7725,2.0214
	c0,0,1.056,1.2445,2.1723,2.3382c0.4375,0.4224,2.557,2.127,4.5935,2.1874c3.7336,0.1056,4.767-2.6852,4.8198-2.8964
	c-0.6864,2.9794-3.2886,5.1969-6.3811,5.212c-2.5117,0-5.0536-2.4665-6.9393-4.6915c0,0.0075-0.0075,0.0075-0.0075,0.0151
	c0,0-0.8448-0.973-1.7725-2.0214C14.1706,16.2971,13.1146,15.045,11.9908,13.9513z M2.5926,14.6603c0-0.0075,0-0.0151,0.0075-0.0226
	C2.5926,14.6452,2.5926,14.6527,2.5926,14.6603z"/>
</svg>
