<?xml version="1.0" encoding="utf-8"?>
<!-- Generator: Adobe Illustrator 24.1.2, SVG Export Plug-In . SVG Version: 6.00 Build 0)  -->
<svg version="1.1" id="Layer_1" xmlns="http://www.w3.org/2000/svg" xmlns:xlink="http://www.w3.org/1999/xlink" x="0px" y="0px"
	 viewBox="0 0 114 24" style="enable-background:new 0 0 114 24;" xml:space="preserve">
<g>
	<g>
		<path d="M91.1215,1.2118c-0.0269-0.0604-0.0655-0.1091-0.1158-0.1461c-0.0504-0.0368-0.1092-0.0554-0.1763-0.0554
			c-0.1478,0-0.2485,0.0672-0.3022,0.2015l-2.6596,6.5079c-0.0067,0.0201-0.0101,0.0504-0.0101,0.0906v0.0303
			c0.0067,0.0806,0.0336,0.1445,0.0806,0.1914c0.0469,0.047,0.1174,0.0705,0.2115,0.0705c0.1276,0,0.2182-0.067,0.272-0.2015
			l0.7455-1.8436h3.2741l0.7556,1.8436c0.0268,0.0604,0.0655,0.1093,0.1158,0.1461c0.0504,0.037,0.1091,0.0554,0.1763,0.0554
			c0.0806,0,0.1511-0.0267,0.2116-0.0806c0.0604-0.0537,0.0906-0.1243,0.0906-0.2116c0-0.0267-0.0068-0.067-0.0201-0.1208
			L91.1215,1.2118z M89.3989,5.4631l1.3903-3.4453l1.4103,3.4453H89.3989z M95.7758,0.6376c-0.0873,0-0.1596,0.0287-0.2166,0.0856
			c-0.0571,0.0571-0.0856,0.1295-0.0856,0.2166v6.8504c0,0.0873,0.0285,0.1597,0.0856,0.2166
			c0.057,0.0571,0.1293,0.0856,0.2166,0.0856c0.0872,0,0.1595-0.0285,0.2166-0.0856c0.057-0.0569,0.0856-0.1293,0.0856-0.2166
			V0.9398c0-0.0872-0.0286-0.1595-0.0856-0.2166C95.9353,0.6663,95.863,0.6376,95.7758,0.6376z M101.0849,3.2418
			c-0.3627-0.225-0.7656-0.3375-1.2089-0.3375c-0.3963,0-0.759,0.0907-1.088,0.272c-0.3291,0.1813-0.5809,0.4299-0.7556,0.7455
			V3.2367c0-0.0871-0.0286-0.1612-0.0856-0.2216c-0.0571-0.0604-0.1293-0.0906-0.2166-0.0906c-0.0873,0-0.1596,0.0302-0.2166,0.0906
			c-0.0571,0.0604-0.0856,0.1345-0.0856,0.2216v6.5684c0,0.0873,0.0285,0.1595,0.0856,0.2166
			c0.057,0.057,0.1293,0.0856,0.2166,0.0856c0.0872,0,0.1594-0.0286,0.2166-0.0856c0.0571-0.0571,0.0856-0.1293,0.0856-0.2166
			V7.1455c0.1948,0.309,0.455,0.5558,0.7808,0.7404c0.3257,0.1849,0.6833,0.277,1.0729,0.277c0.4433,0,0.8445-0.1141,1.2039-0.3425
			c0.3592-0.2281,0.6413-0.5423,0.8462-0.9419c0.2048-0.3995,0.3073-0.8513,0.3073-1.355c0-0.4969-0.1024-0.9453-0.3073-1.3449
			C101.7313,3.7792,101.4476,3.4669,101.0849,3.2418z M101.4224,6.5914c-0.1578,0.3158-0.3762,0.5626-0.6548,0.7404
			c-0.2787,0.178-0.5928,0.267-0.942,0.267c-0.356,0-0.675-0.0889-0.957-0.267c-0.2821-0.1778-0.5004-0.4246-0.6548-0.7404
			c-0.1545-0.3157-0.2317-0.6714-0.2317-1.0679c0-0.3962,0.0771-0.7505,0.2317-1.0629c0.1545-0.3123,0.3727-0.5555,0.6548-0.7303
			c0.282-0.1746,0.601-0.2619,0.957-0.2619c0.3492,0,0.6632,0.0891,0.942,0.2669c0.2786,0.178,0.4969,0.4232,0.6548,0.7355
			c0.1578,0.3123,0.2368,0.6633,0.2368,1.0527C101.6591,5.92,101.5801,6.2758,101.4224,6.5914z M105.8198,2.9042
			c-0.3359,0-0.6649,0.0924-0.9872,0.277c-0.3224,0.1849-0.5743,0.4216-0.7556,0.7103V0.9398c0-0.0872-0.0286-0.1595-0.0856-0.2166
			c-0.0571-0.0569-0.1294-0.0856-0.2166-0.0856c-0.0873,0-0.1596,0.0287-0.2166,0.0856c-0.0571,0.0571-0.0856,0.1295-0.0856,0.2166
			v6.8504c0,0.0873,0.0285,0.1597,0.0856,0.2166c0.057,0.0571,0.1293,0.0856,0.2166,0.0856c0.0872,0,0.1595-0.0285,0.2166-0.0856
			c0.057-0.0569,0.0856-0.1293,0.0856-0.2166v-2.851c0-0.262,0.0771-0.5052,0.2317-0.7304c0.1544-0.225,0.3576-0.4045,0.6095-0.5389
			c0.2518-0.1343,0.5188-0.2015,0.8009-0.2015c0.4432,0,0.7689,0.136,0.9772,0.408c0.2081,0.272,0.3123,0.6263,0.3123,1.0629v2.851
			c0,0.0873,0.0285,0.1597,0.0856,0.2166c0.057,0.0571,0.1292,0.0856,0.2166,0.0856c0.0873,0,0.1595-0.0285,0.2166-0.0856
			c0.057-0.0569,0.0856-0.1293,0.0856-0.2166v-2.851c0-0.5977-0.1478-1.0863-0.4433-1.4658
			C106.8741,3.0942,106.4242,2.9042,105.8198,2.9042z M113.9144,3.0352c-0.0571-0.0604-0.1293-0.0906-0.2166-0.0906
			c-0.0873,0-0.1595,0.0302-0.2166,0.0906c-0.0571,0.0604-0.0856,0.1345-0.0856,0.2216v0.6246
			c-0.168-0.3156-0.4198-0.5707-0.7556-0.7656c-0.3359-0.1948-0.7052-0.2922-1.1082-0.2922c-0.4366,0-0.8345,0.1143-1.1938,0.3425
			c-0.3593,0.2284-0.6431,0.5457-0.8513,0.952c-0.2082,0.4065-0.3123,0.8649-0.3123,1.3751c0,0.5104,0.1024,0.9706,0.3073,1.3801
			c0.2048,0.4097,0.4869,0.7321,0.8462,0.9672c0.3593,0.2352,0.7639,0.3525,1.2139,0.3525c0.3962,0,0.7623-0.1041,1.0981-0.3123
			c0.3358-0.2081,0.5876-0.4634,0.7556-0.7656v0.6749c0,0.0873,0.0285,0.1597,0.0856,0.2166
			c0.057,0.0571,0.1292,0.0856,0.2166,0.0856c0.0873,0,0.1595-0.0285,0.2166-0.0856C113.9714,7.9499,114,7.8776,114,7.7902V3.2568
			C114,3.1697,113.9714,3.0956,113.9144,3.0352z M113.1991,6.5864c-0.1578,0.3259-0.3762,0.581-0.6548,0.7656
			c-0.2788,0.1849-0.5928,0.277-0.942,0.277c-0.356,0-0.6733-0.0922-0.952-0.277c-0.2787-0.1846-0.4954-0.4397-0.6498-0.7656
			c-0.1545-0.3257-0.2317-0.6901-0.2317-1.093c0-0.403,0.0789-0.764,0.2368-1.083c0.1577-0.3188,0.376-0.5692,0.6548-0.7505
			c0.2787-0.1813,0.5927-0.272,0.942-0.272c0.3492,0,0.6631,0.0924,0.942,0.277c0.2786,0.1849,0.4969,0.4382,0.6548,0.7606
			c0.1578,0.3224,0.2368,0.6785,0.2368,1.0679C113.4359,5.8963,113.3569,6.2607,113.1991,6.5864z M13.7654,18.8506H5.4797v-3.3848
			h5.9319c0.5807,0,1.042-0.1721,1.3863-0.5159c0.3434-0.3437,0.5156-0.9236,0.5156-1.741c0-0.4298-0.0593-0.832-0.1767-1.209
			c-0.1189-0.3752-0.2527-0.6816-0.4036-0.9185H5.4797v-2.998h6.8027c0.5798,0,1.0475-0.1721,1.4023-0.5157
			c0.3543-0.3434,0.5315-0.9237,0.5315-1.741c0-0.4295-0.0598-0.838-0.1772-1.2249c-0.1179-0.3871-0.2528-0.6984-0.4031-0.9352
			H2.998c-0.9245,0-1.6555,0.2693-2.1924,0.8062C0.2682,5.0103,0,5.7413,0,6.6653v13.636c0,0.924,0.2682,1.6554,0.8056,2.1918
			c0.537,0.5375,1.2679,0.8062,2.1924,0.8062h9.4127c0.5808,0,1.048-0.1773,1.4028-0.5316c0.3543-0.355,0.5319-0.9404,0.5319-1.7571
			c0-0.4294-0.0598-0.838-0.1776-1.2252C14.0494,19.3982,13.915,19.0873,13.7654,18.8506z M31.8185,8.6469
			c-1.3112-1.0632-3.1811-1.5952-5.609-1.5952c-1.3544,0-2.585,0.1612-3.6913,0.4833c-1.1071,0.3225-2.0262,0.7415-2.7567,1.2573
			c-0.4305,0.3015-0.7689,0.6349-1.0157,0.9996c-0.2473,0.3655-0.3707,0.838-0.3707,1.4183v9.6714
			c0,0.5375,0.0696,0.9725,0.2095,1.3059c0.1403,0.3334,0.3384,0.5959,0.5966,0.7893c0.2578,0.1938,0.5748,0.3225,0.951,0.3871
			c0.3756,0.0644,0.8006,0.0963,1.2734,0.0963c0.4941,0,0.9722-0.0319,1.4351-0.0963c0.4613-0.0646,0.7997-0.129,1.0146-0.1933
			V11.9837c0.301-0.2144,0.6613-0.3751,1.0803-0.4833c0.4195-0.1073,0.8434-0.1612,1.2739-0.1612
			c0.6445,0,1.1549,0.1564,1.5307,0.4672c0.3757,0.312,0.5642,0.8013,0.5642,1.4668v7.6083c0,0.5375,0.0698,0.9725,0.2096,1.3059
			c0.1393,0.3334,0.3383,0.5959,0.5966,0.7893c0.2578,0.1938,0.5742,0.3225,0.9509,0.3871
			c0.3757,0.0644,0.8002,0.0963,1.2734,0.0963c0.4941,0,0.9724-0.0319,1.4341-0.0963c0.4622-0.0646,0.8006-0.129,1.0156-0.1933
			v-10.09C33.7845,11.1891,33.1292,9.7111,31.8185,8.6469z M52.209,9.3243c-0.742-0.7198-1.6287-1.2783-2.6598-1.676
			c-1.032-0.3977-2.182-0.5967-3.4499-0.5967c-1.2684,0-2.4173,0.1934-3.4494,0.5806c-1.0315,0.3868-1.9183,0.9401-2.6597,1.6599
			c-0.7409,0.7205-1.3162,1.5959-1.7242,2.6272c-0.4086,1.0322-0.6131,2.1821-0.6131,3.45c0,1.2895,0.2045,2.4499,0.6131,3.4813
			c0.408,1.0313,0.9833,1.9074,1.7242,2.6276c0.7415,0.7202,1.6282,1.2734,2.6597,1.6599c1.0321,0.3867,2.181,0.5801,3.4494,0.5801
			c1.2679,0,2.4178-0.1821,3.4499-0.5476c1.0311-0.3652,1.9178-0.9028,2.6598-1.6124c0.7409-0.7089,1.3157-1.5847,1.7237-2.6273
			c0.4085-1.0422,0.613-2.2292,0.613-3.5617c0-1.2465-0.2045-2.386-0.613-3.4174C53.5247,10.9202,52.95,10.0444,52.209,9.3243z
			 M48.2112,18.3668c-0.4836,0.7089-1.1769,1.0643-2.08,1.0643c-0.9022,0-1.6062-0.3494-2.1113-1.0478
			c-0.505-0.6989-0.7573-1.7032-0.7573-3.0141c0-1.2899,0.2468-2.2838,0.7418-2.9823c0.4941-0.698,1.1923-1.0478,2.095-1.0478
			c0.9026,0,1.6008,0.3498,2.0954,1.0478c0.4941,0.6985,0.7415,1.6924,0.7415,2.9823
			C48.9362,16.6588,48.6948,17.6576,48.2112,18.3668z M70.3095,13.5957c0.4727-0.4078,0.8867-0.7684,1.2415-1.0797
			c0.3547-0.3116,0.6443-0.6072,0.8703-0.8867c0.2259-0.2791,0.3921-0.5533,0.4996-0.8218c0.107-0.269,0.1612-0.5645,0.1612-0.8865
			c0-0.7523-0.3387-1.3759-1.0156-1.8698c-0.6768-0.4941-1.5745-0.7415-2.692-0.7415l-5.5449,5.6735V4.4727
			c0-0.5369-0.0696-0.9723-0.2095-1.3056c-0.1393-0.3333-0.3384-0.5966-0.5962-0.79c-0.2577-0.193-0.5752-0.3221-0.9509-0.3868
			c-0.3762-0.0644-0.8006-0.0965-1.2739-0.0965c-0.4727,0-0.9399,0.0378-1.4017,0.1129c-0.4623,0.0757-0.8111,0.1451-1.048,0.2095
			v18.6653c0,0.5375,0.0697,0.9725,0.2095,1.3059s0.3384,0.5959,0.5966,0.7893c0.2578,0.1938,0.5747,0.3225,0.9505,0.3871
			c0.3762,0.0644,0.8011,0.0963,1.2739,0.0963c0.4727,0,0.9399-0.0378,1.4022-0.1127c0.4618-0.0751,0.8111-0.1343,1.0474-0.1769
			v-5.8673l3.1922,3.9973c0.6225,0.7952,1.2026,1.3598,1.7406,1.6923c0.537,0.3333,1.1495,0.4998,1.8376,0.4998
			c0.9231,0,1.6282-0.269,2.1113-0.8058c0.4838-0.5367,0.7789-1.3107,0.8864-2.3212l-5.1578-5.158L70.3095,13.5957z M82.0441,7.9543
			c-0.2578-0.1933-0.5753-0.3221-0.9505-0.3867c-0.3767-0.0648-0.8016-0.0966-1.2739-0.0966c-0.4731,0-0.9399,0.0378-1.4022,0.1125
			C77.9547,7.6592,77.6059,7.7179,77.37,7.761v13.1205c0,0.5375,0.0692,0.9725,0.2095,1.3059
			c0.1393,0.3334,0.3384,0.5959,0.5961,0.7893c0.2583,0.1938,0.5748,0.3225,0.951,0.3871c0.3762,0.0644,0.8006,0.0963,1.2739,0.0963
			c0.4722,0,0.9399-0.0378,1.4017-0.1127c0.4623-0.0751,0.811-0.1343,1.0479-0.1769V10.05c0-0.5372-0.0701-0.9722-0.2095-1.3056
			C82.5004,8.4111,82.3018,8.1478,82.0441,7.9543z M80.1104,0.2817c-0.9036,0-1.6287,0.2795-2.1765,0.838
			c-0.5479,0.5596-0.822,1.2471-0.822,2.0635c0,0.817,0.2741,1.5042,0.822,2.0635c0.5479,0.5589,1.2729,0.838,2.1765,0.838
			c0.9022,0,1.6272-0.2791,2.1755-0.838c0.5483-0.5593,0.822-1.2465,0.822-2.0635c0-0.8163-0.2737-1.5039-0.822-2.0635
			C81.7375,0.5612,81.0125,0.2817,80.1104,0.2817z"/>
	</g>
</g>
</svg>
