<?xml version="1.0" encoding="utf-8"?>
<!-- Generator: Adobe Illustrator 24.1.2, SVG Export Plug-In . SVG Version: 6.00 Build 0)  -->
<svg version="1.1" id="Layer_1" xmlns="http://www.w3.org/2000/svg" xmlns:xlink="http://www.w3.org/1999/xlink" x="0px" y="0px"
	 viewBox="0 0 24 24" style="enable-background:new 0 0 24 24;" xml:space="preserve">
<style type="text/css">
	.st0{fill:#B3B2B2;}
</style>
<g>
	<g>
		<path class="st0" d="M20.3194,15.3936c0.1028-0.2384,0.3359-0.3929,0.6807-0.3936c1.6542,0,2.9998-1.3454,2.9998-3.0001
			C23.9999,10.3453,22.6544,9,21.0001,9h-0.166c-0.2173-0.0011-0.4164-0.1093-0.5354-0.2849
			c-0.0133-0.068-0.0351-0.1348-0.0627-0.199c-0.1092-0.2448-0.0573-0.5262,0.1837-0.7709
			c1.1682-1.1701,1.1672-3.0735-0.0029-4.2426v0.0004c-0.005-0.0044-0.0089-0.0089-0.0134-0.0134
			c-0.5655-0.5588-1.3139-0.8659-2.1082-0.8659c-0.0015,0-0.0015,0-0.002,0c-0.8027,0.0004-1.5554,0.3126-2.1724,0.9313
			c-0.1916,0.1871-0.4732,0.2362-0.7261,0.1262c-0.2385-0.1024-0.3941-0.3356-0.3951-0.6814C14.9997,1.3456,13.6537,0,12.0004,0
			c-1.6547,0-3.0007,1.3456-3.0007,2.9999v0.1664c-0.0009,0.2169-0.1096,0.4163-0.285,0.5351
			C8.647,3.7155,8.5809,3.7368,8.5167,3.7653c-0.245,0.1088-0.5261,0.0572-0.7716-0.1842c-1.1706-1.17-3.0739-1.1682-4.244,0.0037
			C2.3319,4.7553,2.3334,6.6584,3.5549,7.8801C3.7421,8.0702,3.793,8.3517,3.6616,8.655C3.5687,8.9068,3.3351,9.0735,2.9997,9.0802
			C1.346,9.0802,0,10.4258,0,12.0801c0,1.6544,1.346,3.0001,2.9997,3.0001h0.166c0.2593,0.0007,0.4929,0.1559,0.5996,0.4033
			c0.1077,0.2447,0.0563,0.5265-0.1847,0.7715c-0.5656,0.567-0.8778,1.3201-0.8773,2.1218c0,0.7917,0.3053,1.537,0.86,2.1007
			c0.007,0.0078,0.0143,0.0148,0.0217,0.0222c1.1697,1.1675,3.0729,1.1653,4.2944-0.0542c0.1901-0.1868,0.4717-0.2384,0.776-0.1069
			c0.2519,0.0932,0.4183,0.3264,0.4248,0.661C9.0803,22.6542,10.4258,24,12.08,24c1.6542,0,3.0007-1.3458,3.0007-3.0004v-0.1649
			c0-0.2596,0.1546-0.4931,0.4035-0.5994c0.2426-0.1106,0.5256-0.0579,0.7706,0.1842c1.1711,1.1671,3.0718,1.1671,4.2449-0.0045
			c1.1682-1.1708,1.1672-3.0742-0.0543-4.2941c-0.1867-0.1916-0.2381-0.4723-0.1299-0.717
			C20.3165,15.4003,20.3185,15.3973,20.3194,15.3936z M12.0004,16.0001c-2.2059,0-3.9999-1.7939-3.9999-4.0001
			c0-2.2053,1.794-4,3.9999-4c2.2055,0,3.9995,1.7947,3.9995,4C15.9999,14.2061,14.2059,16.0001,12.0004,16.0001z"/>
	</g>
</g>
</svg>
