<?xml version="1.0" encoding="utf-8"?>
<!-- Generator: Adobe Illustrator 24.1.2, SVG Export Plug-In . SVG Version: 6.00 Build 0)  -->
<svg version="1.1" id="Layer_1" xmlns="http://www.w3.org/2000/svg" xmlns:xlink="http://www.w3.org/1999/xlink" x="0px" y="0px"
	 viewBox="0 0 50 50" style="enable-background:new 0 0 50 50;" xml:space="preserve">
<style type="text/css">
	.st0{fill-rule:evenodd;clip-rule:evenodd;fill:#FFFFFF;}
	.st1{fill:#E7EBEF;}
	.st2{fill-rule:evenodd;clip-rule:evenodd;fill:#808080;}
</style>
<g>
	<path class="st0" d="M24.9995,47.9199C12.3618,47.9199,2.0801,37.6377,2.0801,25c0-12.6382,10.2817-22.9199,22.9194-22.9199
		c12.6382,0,22.9204,10.2817,22.9204,22.9199C47.9199,37.6377,37.6377,47.9199,24.9995,47.9199z"/>
	<path class="st1" d="M24.9998,4.0802c11.5538,0,20.92,9.3662,20.92,20.92c0,11.5537-9.3662,20.9196-20.92,20.9196
		c-11.5534,0-20.9195-9.3659-20.9195-20.9196C4.0802,13.4464,13.4464,4.0802,24.9998,4.0802 M24.9998,0.0802
		c-13.7407,0-24.9195,11.1791-24.9195,24.92c0,13.7407,11.1788,24.9196,24.9195,24.9196c13.7409,0,24.92-11.1789,24.92-24.9196
		C49.9198,11.2593,38.7407,0.0802,24.9998,0.0802L24.9998,0.0802z"/>
</g>
<g>
	<path class="st2" d="M21.4996,27.4995l7.0002,7.0004l7.0002-7.0004H21.4996z M21.4996,15.5001l-6.9997,7h13.9999L21.4996,15.5001z"
		/>
</g>
</svg>
