<?xml version="1.0" encoding="utf-8"?>
<!-- Generator: Adobe Illustrator 24.1.2, SVG Export Plug-In . SVG Version: 6.00 Build 0)  -->
<svg version="1.1" id="Layer_1" xmlns="http://www.w3.org/2000/svg" xmlns:xlink="http://www.w3.org/1999/xlink" x="0px" y="0px"
	 viewBox="0 0 32.0001 32" style="enable-background:new 0 0 32.0001 32;" xml:space="preserve">
<style type="text/css">
	.st0{fill:#FFFFFF;}
</style>
<g>
	<circle cx="15.9988" cy="15.9988" r="15.9988"/>
</g>
<g>
	<path class="st0" d="M6.7524,23.3278c0.2489-1.4622,0.4978-2.9244,0.7639-4.488c1.4799,0.545,2.8823,1.0615,4.4192,1.6275
		c-0.433,0.278-0.7493,0.481-1.1661,0.7486c1.5308,1.5583,3.3336,2.3425,5.4725,2.303c2.1284-0.0393,3.9069-0.9093,5.4617-2.5965
		c0.1626,0.8497,0.2974,1.5544,0.4454,2.3278c0.8169-0.2967,1.6065-0.5835,2.3962-0.8703c0.0363,0.0429,0.0726,0.0859,0.1089,0.1288
		c-0.3469,0.4015-0.6741,0.8223-1.0438,1.2016c-4.0211,4.1258-10.9027,4.1636-14.9521,0.0592
		c-0.5536-0.5611-0.9975-1.1173-1.8224-0.2646C6.808,23.4459,6.7802,23.3868,6.7524,23.3278z"/>
	<path class="st0" d="M26.0314,20.0335c0.321,0.2092,0.6185,0.403,1.0313,0.6721c-1.5158,0.5693-2.8972,1.0881-4.4067,1.655
		c-0.2644-1.5436-0.5161-3.0135-0.7917-4.6223c0.468,0.2265,0.8196,0.3966,1.2141,0.5875c0.589-2.1096,0.3501-4.0808-0.7707-5.9205
		c-1.108-1.8186-2.7741-2.8899-4.9468-3.3899c0.6411-0.5449,1.1806-1.0033,1.7884-1.5199c-0.6717-0.5787-1.304-1.1233-2.0132-1.7342
		C22.76,6.0103,28.6976,12.2005,26.0314,20.0335z"/>
	<path class="st0" d="M14.5093,4.5046c1.2628,1.0399,2.4055,1.9808,3.6196,2.9805c-1.2044,1.0014-2.3441,1.9489-3.6026,2.9952
		c-0.0342-0.4985-0.0595-0.8667-0.0924-1.347c-2.1412,0.5403-3.6971,1.7305-4.7414,3.6094
		c-1.041,1.8729-1.0975,3.8466-0.5064,5.9696c-0.7683-0.269-1.4323-0.5015-2.1829-0.7643
		c-0.1625,0.8655-0.3187,1.6975-0.4749,2.5294c-0.0466,0.0109-0.0933,0.0218-0.1399,0.0328
		c-0.1865-0.5205-0.4146-1.0303-0.553-1.5633C4.3142,13.0877,7.8414,7.258,13.7668,5.9242
		C14.6239,5.7313,14.4264,5.1771,14.5093,4.5046z"/>
</g>
</svg>
