<?xml version="1.0" encoding="utf-8"?>
<!-- Generator: Adobe Illustrator 24.1.2, SVG Export Plug-In . SVG Version: 6.00 Build 0)  -->
<svg version="1.1" id="Layer_1" xmlns="http://www.w3.org/2000/svg" xmlns:xlink="http://www.w3.org/1999/xlink" x="0px" y="0px"
	 viewBox="0 0 39 32" style="enable-background:new 0 0 39 32;" xml:space="preserve">
<style type="text/css">
	.st0{fill:#FFFFFF;}
	.st1{fill-rule:evenodd;clip-rule:evenodd;}
	.st2{fill-rule:evenodd;clip-rule:evenodd;fill:#D9B197;}
</style>
<g>
	<circle cx="22.9988" cy="15.9988" r="15.9988"/>
</g>
<g>
	<path class="st0" d="M13.7524,23.3278c0.2489-1.4622,0.4978-2.9244,0.7639-4.488c1.4799,0.545,2.8823,1.0615,4.4192,1.6275
		c-0.433,0.278-0.7493,0.481-1.1661,0.7486c1.5308,1.5583,3.3336,2.3425,5.4725,2.303c2.1284-0.0393,3.9069-0.9093,5.4617-2.5965
		c0.1626,0.8497,0.2974,1.5544,0.4454,2.3278c0.8169-0.2967,1.6065-0.5835,2.3962-0.8703c0.0363,0.0429,0.0726,0.0859,0.1089,0.1288
		c-0.3469,0.4015-0.6741,0.8223-1.0438,1.2016c-4.0211,4.1258-10.9027,4.1636-14.9521,0.0592
		c-0.5536-0.5611-0.9975-1.1173-1.8224-0.2646C13.808,23.4459,13.7802,23.3868,13.7524,23.3278z"/>
	<path class="st0" d="M33.0313,20.0335c0.321,0.2092,0.6185,0.403,1.0313,0.6721c-1.5158,0.5693-2.8972,1.0881-4.4067,1.655
		c-0.2644-1.5436-0.5161-3.0135-0.7917-4.6223c0.468,0.2265,0.8196,0.3966,1.2141,0.5875c0.589-2.1096,0.3501-4.0808-0.7707-5.9205
		c-1.108-1.8186-2.7741-2.8899-4.9468-3.3899c0.6411-0.5449,1.1806-1.0033,1.7884-1.5199c-0.6717-0.5787-1.304-1.1233-2.0132-1.7342
		C29.76,6.0103,35.6975,12.2005,33.0313,20.0335z"/>
	<path class="st0" d="M21.5093,4.5046c1.2628,1.0399,2.4055,1.9808,3.6196,2.9805c-1.2044,1.0014-2.3441,1.9489-3.6026,2.9952
		c-0.0342-0.4985-0.0595-0.8667-0.0924-1.347c-2.1412,0.5403-3.6971,1.7305-4.7414,3.6094
		c-1.041,1.8729-1.0975,3.8466-0.5064,5.9696c-0.7683-0.269-1.4323-0.5015-2.1829-0.7643
		c-0.1625,0.8655-0.3187,1.6975-0.4749,2.5294c-0.0466,0.0109-0.0933,0.0218-0.1399,0.0328
		c-0.1865-0.5205-0.4146-1.0303-0.553-1.5633c-1.5211-5.8591,2.006-11.6888,7.9315-13.0226
		C21.6239,5.7313,21.4263,5.1771,21.5093,4.5046z"/>
</g>
<g>
	<path class="st1" d="M8,16c4.4183,0,8,3.5817,8,8s-3.5817,8-8,8s-8-3.5817-8-8S3.5817,16,8,16z"/>
</g>
<path class="st2" d="M13.2977,25.1626c-0.224,0.8359-0.7392,0.947-1.4082,0.8389l-0.6897,2.5741
	c-0.1222,0.4562-0.5912,0.7269-1.0471,0.6047c-0.4562-0.1222-0.727-0.5911-0.6048-1.0473l0.6887-2.5702
	c-0.6514-0.2411-1.0567-0.5935-0.8291-1.4426c0.3118-1.1638,1.4355-1.8739,2.5098-1.586
	C12.9915,22.822,13.6095,23.9987,13.2977,25.1626z M8.864,22.4233v5.9214c0,0.4723-0.3829,0.8552-0.8549,0.8552
	c-0.4723,0-0.8552-0.3829-0.8552-0.8552v-5.92c-1.0035-0.053-1.7282-0.3036-1.7282-1.5194c0-1.5363,1.1495-2.7817,2.5677-2.7817
	c1.418,0,2.5675,1.2454,2.5675,2.7817C10.5609,22.1087,9.8514,22.3668,8.864,22.4233z M6.5925,24.1202
	c0.2275,0.8491-0.1778,1.2015-0.8292,1.4426L6.452,28.133c0.1222,0.4562-0.1485,0.9251-0.6047,1.0473
	c-0.456,0.1222-0.9249-0.1485-1.0472-0.6047l-0.6897-2.5741c-0.669,0.1081-1.1842-0.003-1.4081-0.8389
	c-0.3119-1.1639,0.3062-2.3406,1.3803-2.6284C5.157,22.2463,6.2806,22.9564,6.5925,24.1202z"/>
<g>
	<path class="st0" d="M8,14c-3.2715,0-6.172,1.5861-7.9976,4.0222v5.9295C0.0287,19.5558,3.598,16,8,16c4.4183,0,8,3.5817,8,8
		c0,4.4023-3.5565,7.972-7.9529,7.9976h5.9306C16.4138,30.1721,18,27.2715,18,24C18,18.486,13.514,14,8,14z"/>
	<path class="st0" d="M0.0024,24.0483v5.9295c0.5742,0.7662,1.2537,1.4456,2.0198,2.0198h5.9306
		C3.5728,31.9722,0.0286,28.4283,0.0024,24.0483z"/>
</g>
</svg>
